<svg xmlns="http://www.w3.org/2000/svg" viewBox="0 0 640 427" width="640" height="427" role="img">
  <defs>
  <linearGradient id="bg1147" x1="0.000" y1="0.500" x2="1.000" y2="0.500">
    <stop offset="0" stop-color="#111014"/>
    <stop offset="1" stop-color="#2B282D"/>
  </linearGradient>
  <radialGradient id="vig1147" cx="0.5" cy="0.45" r="0.78">
    <stop offset="0.45" stop-color="#000000" stop-opacity="0"/>
    <stop offset="1" stop-color="#000000" stop-opacity="0.42"/>
  </radialGradient>
  <filter id="grain1147" x="0" y="0" width="100%" height="100%">
    <feTurbulence type="fractalNoise" baseFrequency="0.9" numOctaves="2" seed="902" result="n"/>
    <feColorMatrix type="saturate" values="0" in="n" result="g"/>
    <feComponentTransfer in="g"><feFuncA type="linear" slope="0.32"/></feComponentTransfer>
  </filter>
  <filter id="soft1147" x="-30%" y="-30%" width="160%" height="160%">
    <feGaussianBlur stdDeviation="41"/>
  </filter>
  <filter id="soft21147" x="-30%" y="-30%" width="160%" height="160%">
    <feGaussianBlur stdDeviation="11"/>
  </filter>
  </defs>
  <rect width="640" height="427" fill="url(#bg1147)"/>
  <g>
    <ellipse cx="312" cy="221" rx="142" ry="171" fill="#2B282D" opacity="0.9" filter="url(#soft21147)"/>
    <path d="M 353 0 L 424 0 L 334 427 L 264 427 Z" fill="#DCD5D2" opacity="0.15" filter="url(#soft21147)"/>
    <path d="M 189 0 L 290 0 L 316 427 L 216 427 Z" fill="#DCD5D2" opacity="0.18" filter="url(#soft21147)"/>
    <path d="M 417 0 L 462 0 L 529 427 L 484 427 Z" fill="#DCD5D2" opacity="0.17" filter="url(#soft21147)"/>
    <path d="M 304 0 L 347 0 L 323 427 L 280 427 Z" fill="#DCD5D2" opacity="0.13" filter="url(#soft21147)"/>
    <circle cx="326" cy="128" r="37" fill="#DCD5D2" opacity="0.55"/>
  </g>
  <rect width="640" height="427" filter="url(#grain1147)" opacity="0.5" style="mix-blend-mode:overlay"/>
  <rect width="640" height="427" fill="url(#vig1147)"/>
</svg>