<svg xmlns="http://www.w3.org/2000/svg" viewBox="0 0 640 960" width="640" height="960" role="img">
  <defs>
  <linearGradient id="bg1301" x1="0.000" y1="0.500" x2="1.000" y2="0.500">
    <stop offset="0" stop-color="#26101C"/>
    <stop offset="1" stop-color="#6C2440"/>
  </linearGradient>
  <radialGradient id="vig1301" cx="0.5" cy="0.45" r="0.78">
    <stop offset="0.45" stop-color="#000000" stop-opacity="0"/>
    <stop offset="1" stop-color="#000000" stop-opacity="0.42"/>
  </radialGradient>
  <filter id="grain1301" x="0" y="0" width="100%" height="100%">
    <feTurbulence type="fractalNoise" baseFrequency="0.9" numOctaves="2" seed="277" result="n"/>
    <feColorMatrix type="saturate" values="0" in="n" result="g"/>
    <feComponentTransfer in="g"><feFuncA type="linear" slope="0.32"/></feComponentTransfer>
  </filter>
  <filter id="soft1301" x="-30%" y="-30%" width="160%" height="160%">
    <feGaussianBlur stdDeviation="78"/>
  </filter>
  <filter id="soft21301" x="-30%" y="-30%" width="160%" height="160%">
    <feGaussianBlur stdDeviation="19"/>
  </filter>
  </defs>
  <rect width="640" height="960" fill="url(#bg1301)"/>
  <g>
    <circle cx="505" cy="908" r="275" fill="#F0A177" opacity="0.75" filter="url(#soft1301)"/>
    <circle cx="298" cy="1016" r="544" fill="#6C2440" opacity="0.63" filter="url(#soft1301)"/>
    <circle cx="261" cy="418" r="277" fill="#C44569" opacity="0.75" filter="url(#soft1301)"/>
    <circle cx="368" cy="277" r="572" fill="#FBE7D3" opacity="0.53" filter="url(#soft1301)"/>
    <circle cx="134" cy="418" r="541" fill="#C44569" opacity="0.76" filter="url(#soft1301)"/>
    <path d="M0 652 Q 320 527 640 652" fill="none" stroke="#FBE7D3" stroke-width="1.2" opacity="0.16"/>
    <path d="M0 486 Q 320 355 640 486" fill="none" stroke="#FBE7D3" stroke-width="1.2" opacity="0.27"/>
    <path d="M0 715 Q 320 637 640 715" fill="none" stroke="#FBE7D3" stroke-width="1.2" opacity="0.33"/>
    <circle cx="277" cy="369" r="128" fill="none" stroke="#FBE7D3" stroke-width="1.4" opacity="0.28"/>
  </g>
  <rect width="640" height="960" filter="url(#grain1301)" opacity="0.5" style="mix-blend-mode:overlay"/>
  <rect width="640" height="960" fill="url(#vig1301)"/>
</svg>