<svg xmlns="http://www.w3.org/2000/svg" viewBox="0 0 640 427" width="640" height="427" role="img">
  <defs>
  <linearGradient id="bg1259" x1="0.329" y1="0.030" x2="0.671" y2="0.970">
    <stop offset="0" stop-color="#0A0F1B"/>
    <stop offset="1" stop-color="#17243C"/>
  </linearGradient>
  <radialGradient id="vig1259" cx="0.5" cy="0.45" r="0.78">
    <stop offset="0.45" stop-color="#000000" stop-opacity="0"/>
    <stop offset="1" stop-color="#000000" stop-opacity="0.42"/>
  </radialGradient>
  <filter id="grain1259" x="0" y="0" width="100%" height="100%">
    <feTurbulence type="fractalNoise" baseFrequency="0.9" numOctaves="2" seed="459" result="n"/>
    <feColorMatrix type="saturate" values="0" in="n" result="g"/>
    <feComponentTransfer in="g"><feFuncA type="linear" slope="0.32"/></feComponentTransfer>
  </filter>
  <filter id="soft1259" x="-30%" y="-30%" width="160%" height="160%">
    <feGaussianBlur stdDeviation="31"/>
  </filter>
  <filter id="soft21259" x="-30%" y="-30%" width="160%" height="160%">
    <feGaussianBlur stdDeviation="18"/>
  </filter>
  </defs>
  <rect width="640" height="427" fill="url(#bg1259)"/>
  <g>
    <rect x="1" y="1" width="104" height="104" rx="0" fill="#BCCEDE" opacity="0.62"/>
    <rect x="223" y="10" width="87" height="87" rx="0" fill="#BCCEDE" opacity="0.48"/>
    <rect x="325" y="5" width="97" height="97" rx="0" fill="#2C466B" opacity="0.34"/>
    <rect x="436" y="10" width="87" height="87" rx="53" fill="#17243C" opacity="0.52"/>
    <rect x="3" y="110" width="101" height="101" rx="53" fill="#6182A8" opacity="0.44"/>
    <rect x="112" y="112" width="97" height="97" rx="0" fill="#2C466B" opacity="0.39"/>
    <rect x="214" y="107" width="106" height="106" rx="0" fill="#17243C" opacity="0.50"/>
    <rect x="327" y="114" width="93" height="93" rx="0" fill="#6182A8" opacity="0.40"/>
    <rect x="537" y="111" width="99" height="99" rx="53" fill="#17243C" opacity="0.53"/>
    <rect x="2" y="216" width="102" height="102" rx="0" fill="#2C466B" opacity="0.31"/>
    <rect x="112" y="219" width="95" height="95" rx="53" fill="#2C466B" opacity="0.66"/>
    <rect x="215" y="216" width="102" height="103" rx="0" fill="#17243C" opacity="0.25"/>
    <rect x="330" y="224" width="86" height="86" rx="0" fill="#BCCEDE" opacity="0.26"/>
    <rect x="110" y="324" width="100" height="100" rx="0" fill="#17243C" opacity="0.67"/>
    <rect x="323" y="323" width="101" height="102" rx="0" fill="#17243C" opacity="0.36"/>
    <rect x="539" y="326" width="96" height="96" rx="0" fill="#2C466B" opacity="0.33"/>
    <circle cx="388" cy="191" r="171" fill="#BCCEDE" opacity="0.14" filter="url(#soft1259)"/>
  </g>
  <rect width="640" height="427" filter="url(#grain1259)" opacity="0.5" style="mix-blend-mode:overlay"/>
  <rect width="640" height="427" fill="url(#vig1259)"/>
</svg>