<svg xmlns="http://www.w3.org/2000/svg" viewBox="0 0 640 427" width="640" height="427" role="img">
  <defs>
  <linearGradient id="bg1168" x1="0.000" y1="0.500" x2="1.000" y2="0.500">
    <stop offset="0" stop-color="#15121A"/>
    <stop offset="1" stop-color="#332C38"/>
  </linearGradient>
  <radialGradient id="vig1168" cx="0.5" cy="0.45" r="0.78">
    <stop offset="0.45" stop-color="#000000" stop-opacity="0"/>
    <stop offset="1" stop-color="#000000" stop-opacity="0.42"/>
  </radialGradient>
  <filter id="grain1168" x="0" y="0" width="100%" height="100%">
    <feTurbulence type="fractalNoise" baseFrequency="0.9" numOctaves="2" seed="794" result="n"/>
    <feColorMatrix type="saturate" values="0" in="n" result="g"/>
    <feComponentTransfer in="g"><feFuncA type="linear" slope="0.32"/></feComponentTransfer>
  </filter>
  <filter id="soft1168" x="-30%" y="-30%" width="160%" height="160%">
    <feGaussianBlur stdDeviation="43"/>
  </filter>
  <filter id="soft21168" x="-30%" y="-30%" width="160%" height="160%">
    <feGaussianBlur stdDeviation="17"/>
  </filter>
  </defs>
  <rect width="640" height="427" fill="url(#bg1168)"/>
  <g>
    <ellipse cx="411" cy="285" rx="158" ry="161" fill="#332C38" opacity="0.9" filter="url(#soft21168)"/>
    <path d="M 373 0 L 449 0 L 462 427 L 386 427 Z" fill="#E6DEDC" opacity="0.07" filter="url(#soft21168)"/>
    <path d="M 363 0 L 433 0 L 480 427 L 409 427 Z" fill="#E6DEDC" opacity="0.15" filter="url(#soft21168)"/>
    <path d="M 490 0 L 535 0 L 629 427 L 583 427 Z" fill="#E6DEDC" opacity="0.17" filter="url(#soft21168)"/>
    <path d="M 159 0 L 209 0 L 117 427 L 67 427 Z" fill="#E6DEDC" opacity="0.08" filter="url(#soft21168)"/>
    <circle cx="146" cy="54" r="25" fill="#E6DEDC" opacity="0.55"/>
  </g>
  <rect width="640" height="427" filter="url(#grain1168)" opacity="0.5" style="mix-blend-mode:overlay"/>
  <rect width="640" height="427" fill="url(#vig1168)"/>
</svg>