<svg xmlns="http://www.w3.org/2000/svg" viewBox="0 0 640 960" width="640" height="960" role="img">
  <defs>
  <linearGradient id="bg1287" x1="0.047" y1="0.289" x2="0.953" y2="0.711">
    <stop offset="0" stop-color="#0A0F1B"/>
    <stop offset="1" stop-color="#17243C"/>
  </linearGradient>
  <radialGradient id="vig1287" cx="0.5" cy="0.45" r="0.78">
    <stop offset="0.45" stop-color="#000000" stop-opacity="0"/>
    <stop offset="1" stop-color="#000000" stop-opacity="0.42"/>
  </radialGradient>
  <filter id="grain1287" x="0" y="0" width="100%" height="100%">
    <feTurbulence type="fractalNoise" baseFrequency="0.9" numOctaves="2" seed="694" result="n"/>
    <feColorMatrix type="saturate" values="0" in="n" result="g"/>
    <feComponentTransfer in="g"><feFuncA type="linear" slope="0.32"/></feComponentTransfer>
  </filter>
  <filter id="soft1287" x="-30%" y="-30%" width="160%" height="160%">
    <feGaussianBlur stdDeviation="69"/>
  </filter>
  <filter id="soft21287" x="-30%" y="-30%" width="160%" height="160%">
    <feGaussianBlur stdDeviation="25"/>
  </filter>
  </defs>
  <rect width="640" height="960" fill="url(#bg1287)"/>
  <g>
    <path d="M 159 406 A 77 77 0 0 1 313 406" fill="none" stroke="#6182A8" stroke-width="8.1" opacity="0.83"/>
    <path d="M 106 406 A 130 130 0 0 1 366 406" fill="none" stroke="#BCCEDE" stroke-width="3.9" opacity="0.62"/>
    <path d="M 46 406 A 190 190 0 0 1 426 406" fill="none" stroke="#6182A8" stroke-width="3.8" opacity="0.43"/>
    <path d="M -25 406 A 261 261 0 0 1 497 406" fill="none" stroke="#BCCEDE" stroke-width="2.6" opacity="0.73"/>
    <path d="M -54 406 A 290 290 0 0 1 526 406" fill="none" stroke="#BCCEDE" stroke-width="4.2" opacity="0.53"/>
    <rect x="474" y="630" width="97" height="330" fill="#2C466B" opacity="0.24"/>
    <rect x="238" y="425" width="117" height="535" fill="#17243C" opacity="0.25"/>
    <rect x="18" y="309" width="120" height="651" fill="#2C466B" opacity="0.35"/>
  </g>
  <rect width="640" height="960" filter="url(#grain1287)" opacity="0.5" style="mix-blend-mode:overlay"/>
  <rect width="640" height="960" fill="url(#vig1287)"/>
</svg>