<svg xmlns="http://www.w3.org/2000/svg" viewBox="0 0 1600 1067" width="1600" height="1067" role="img">
  <defs>
  <linearGradient id="bg1294" x1="0.047" y1="0.289" x2="0.953" y2="0.711">
    <stop offset="0" stop-color="#0A0F1B"/>
    <stop offset="1" stop-color="#17243C"/>
  </linearGradient>
  <radialGradient id="vig1294" cx="0.5" cy="0.45" r="0.78">
    <stop offset="0.45" stop-color="#000000" stop-opacity="0"/>
    <stop offset="1" stop-color="#000000" stop-opacity="0.42"/>
  </radialGradient>
  <filter id="grain1294" x="0" y="0" width="100%" height="100%">
    <feTurbulence type="fractalNoise" baseFrequency="0.9" numOctaves="2" seed="140" result="n"/>
    <feColorMatrix type="saturate" values="0" in="n" result="g"/>
    <feComponentTransfer in="g"><feFuncA type="linear" slope="0.32"/></feComponentTransfer>
  </filter>
  <filter id="soft1294" x="-30%" y="-30%" width="160%" height="160%">
    <feGaussianBlur stdDeviation="113"/>
  </filter>
  <filter id="soft21294" x="-30%" y="-30%" width="160%" height="160%">
    <feGaussianBlur stdDeviation="35"/>
  </filter>
  </defs>
  <rect width="1600" height="1067" fill="url(#bg1294)"/>
  <g>
    <rect x="184" y="6" width="165" height="165" rx="0" fill="#2C466B" opacity="0.65"/>
    <rect x="546" y="12" width="153" height="153" rx="0" fill="#17243C" opacity="0.59"/>
    <rect x="1265" y="20" width="137" height="137" rx="0" fill="#BCCEDE" opacity="0.29"/>
    <rect x="193" y="193" width="148" height="148" rx="0" fill="#BCCEDE" opacity="0.57"/>
    <rect x="359" y="181" width="171" height="171" rx="0" fill="#6182A8" opacity="0.65"/>
    <rect x="540" y="184" width="165" height="165" rx="89" fill="#17243C" opacity="0.21"/>
    <rect x="724" y="190" width="153" height="153" rx="89" fill="#2C466B" opacity="0.40"/>
    <rect x="1067" y="178" width="177" height="177" rx="0" fill="#6182A8" opacity="0.46"/>
    <rect x="1428" y="184" width="165" height="165" rx="0" fill="#17243C" opacity="0.64"/>
    <rect x="8" y="364" width="161" height="161" rx="0" fill="#17243C" opacity="0.66"/>
    <rect x="183" y="361" width="168" height="168" rx="0" fill="#2C466B" opacity="0.24"/>
    <rect x="372" y="372" width="145" height="145" rx="89" fill="#6182A8" opacity="0.33"/>
    <rect x="726" y="371" width="148" height="148" rx="0" fill="#2C466B" opacity="0.57"/>
    <rect x="899" y="365" width="158" height="159" rx="0" fill="#2C466B" opacity="0.60"/>
    <rect x="1264" y="375" width="140" height="140" rx="89" fill="#BCCEDE" opacity="0.57"/>
    <rect x="1423" y="357" width="176" height="176" rx="89" fill="#6182A8" opacity="0.42"/>
    <rect x="9" y="542" width="160" height="160" rx="0" fill="#2C466B" opacity="0.29"/>
    <rect x="183" y="539" width="167" height="167" rx="89" fill="#2C466B" opacity="0.42"/>
    <rect x="537" y="537" width="170" height="170" rx="0" fill="#2C466B" opacity="0.51"/>
    <rect x="729" y="552" width="141" height="141" rx="0" fill="#BCCEDE" opacity="0.54"/>
    <rect x="902" y="547" width="151" height="151" rx="0" fill="#6182A8" opacity="0.54"/>
    <rect x="1081" y="548" width="148" height="148" rx="89" fill="#2C466B" opacity="0.70"/>
    <rect x="1249" y="538" width="169" height="169" rx="0" fill="#17243C" opacity="0.36"/>
    <rect x="1423" y="534" width="177" height="177" rx="0" fill="#17243C" opacity="0.49"/>
    <rect x="534" y="712" width="176" height="176" rx="0" fill="#BCCEDE" opacity="0.30"/>
    <rect x="714" y="714" width="172" height="172" rx="0" fill="#BCCEDE" opacity="0.24"/>
    <rect x="892" y="714" width="172" height="172" rx="89" fill="#17243C" opacity="0.36"/>
    <rect x="1069" y="713" width="174" height="174" rx="89" fill="#2C466B" opacity="0.64"/>
    <rect x="1250" y="717" width="166" height="167" rx="0" fill="#BCCEDE" opacity="0.43"/>
    <rect x="1431" y="721" width="159" height="159" rx="0" fill="#BCCEDE" opacity="0.48"/>
    <rect x="18" y="907" width="142" height="142" rx="89" fill="#2C466B" opacity="0.19"/>
    <rect x="191" y="902" width="152" height="152" rx="89" fill="#BCCEDE" opacity="0.68"/>
    <rect x="359" y="893" width="170" height="170" rx="89" fill="#6182A8" opacity="0.62"/>
    <rect x="538" y="894" width="169" height="169" rx="89" fill="#17243C" opacity="0.48"/>
    <rect x="731" y="909" width="137" height="137" rx="89" fill="#17243C" opacity="0.29"/>
    <rect x="1259" y="904" width="148" height="148" rx="0" fill="#6182A8" opacity="0.71"/>
    <circle cx="1132" cy="422" r="427" fill="#BCCEDE" opacity="0.14" filter="url(#soft1294)"/>
  </g>
  <rect width="1600" height="1067" filter="url(#grain1294)" opacity="0.5" style="mix-blend-mode:overlay"/>
  <rect width="1600" height="1067" fill="url(#vig1294)"/>
</svg>