<svg xmlns="http://www.w3.org/2000/svg" viewBox="0 0 1200 1200" width="1200" height="1200" role="img">
  <defs>
  <linearGradient id="bg1063" x1="0.854" y1="0.146" x2="0.146" y2="0.854">
    <stop offset="0" stop-color="#1B1A21"/>
    <stop offset="1" stop-color="#3B3A45"/>
  </linearGradient>
  <radialGradient id="vig1063" cx="0.5" cy="0.45" r="0.78">
    <stop offset="0.45" stop-color="#000000" stop-opacity="0"/>
    <stop offset="1" stop-color="#000000" stop-opacity="0.42"/>
  </radialGradient>
  <filter id="grain1063" x="0" y="0" width="100%" height="100%">
    <feTurbulence type="fractalNoise" baseFrequency="0.9" numOctaves="2" seed="333" result="n"/>
    <feColorMatrix type="saturate" values="0" in="n" result="g"/>
    <feComponentTransfer in="g"><feFuncA type="linear" slope="0.32"/></feComponentTransfer>
  </filter>
  <filter id="soft1063" x="-30%" y="-30%" width="160%" height="160%">
    <feGaussianBlur stdDeviation="102"/>
  </filter>
  <filter id="soft21063" x="-30%" y="-30%" width="160%" height="160%">
    <feGaussianBlur stdDeviation="33"/>
  </filter>
  </defs>
  <rect width="1200" height="1200" fill="url(#bg1063)"/>
  <g>
    <path d="M 331 744 A 144 144 0 0 1 619 744" fill="none" stroke="#E3DCD6" stroke-width="11.6" opacity="0.78"/>
    <path d="M 239 744 A 237 237 0 0 1 712 744" fill="none" stroke="#A8A3A9" stroke-width="9.5" opacity="0.67"/>
    <path d="M 121 744 A 354 354 0 0 1 829 744" fill="none" stroke="#A8A3A9" stroke-width="8.9" opacity="0.63"/>
    <path d="M 1 744 A 474 474 0 0 1 950 744" fill="none" stroke="#E3DCD6" stroke-width="5.3" opacity="0.37"/>
    <path d="M -34 744 A 509 509 0 0 1 984 744" fill="none" stroke="#A8A3A9" stroke-width="14.9" opacity="0.50"/>
    <path d="M -254 744 A 729 729 0 0 1 1205 744" fill="none" stroke="#A8A3A9" stroke-width="11.5" opacity="0.45"/>
    <path d="M -185 744 A 660 660 0 0 1 1135 744" fill="none" stroke="#A8A3A9" stroke-width="7.3" opacity="0.79"/>
    <rect x="469" y="323" width="132" height="877" fill="#A8A3A9" opacity="0.34"/>
    <rect x="68" y="863" width="191" height="337" fill="#3B3A45" opacity="0.38"/>
    <rect x="25" y="341" width="103" height="859" fill="#3B3A45" opacity="0.44"/>
  </g>
  <rect width="1200" height="1200" filter="url(#grain1063)" opacity="0.5" style="mix-blend-mode:overlay"/>
  <rect width="1200" height="1200" fill="url(#vig1063)"/>
</svg>