<svg xmlns="http://www.w3.org/2000/svg" viewBox="0 0 1600 1067" width="1600" height="1067" role="img">
  <defs>
  <linearGradient id="bg1147" x1="0.000" y1="0.500" x2="1.000" y2="0.500">
    <stop offset="0" stop-color="#111014"/>
    <stop offset="1" stop-color="#2B282D"/>
  </linearGradient>
  <radialGradient id="vig1147" cx="0.5" cy="0.45" r="0.78">
    <stop offset="0.45" stop-color="#000000" stop-opacity="0"/>
    <stop offset="1" stop-color="#000000" stop-opacity="0.42"/>
  </radialGradient>
  <filter id="grain1147" x="0" y="0" width="100%" height="100%">
    <feTurbulence type="fractalNoise" baseFrequency="0.9" numOctaves="2" seed="902" result="n"/>
    <feColorMatrix type="saturate" values="0" in="n" result="g"/>
    <feComponentTransfer in="g"><feFuncA type="linear" slope="0.32"/></feComponentTransfer>
  </filter>
  <filter id="soft1147" x="-30%" y="-30%" width="160%" height="160%">
    <feGaussianBlur stdDeviation="104"/>
  </filter>
  <filter id="soft21147" x="-30%" y="-30%" width="160%" height="160%">
    <feGaussianBlur stdDeviation="28"/>
  </filter>
  </defs>
  <rect width="1600" height="1067" fill="url(#bg1147)"/>
  <g>
    <ellipse cx="780" cy="551" rx="354" ry="426" fill="#2B282D" opacity="0.9" filter="url(#soft21147)"/>
    <path d="M 883 0 L 1059 0 L 835 1067 L 659 1067 Z" fill="#DCD5D2" opacity="0.15" filter="url(#soft21147)"/>
    <path d="M 474 0 L 725 0 L 790 1067 L 539 1067 Z" fill="#DCD5D2" opacity="0.18" filter="url(#soft21147)"/>
    <path d="M 1042 0 L 1155 0 L 1323 1067 L 1211 1067 Z" fill="#DCD5D2" opacity="0.17" filter="url(#soft21147)"/>
    <path d="M 759 0 L 868 0 L 808 1067 L 700 1067 Z" fill="#DCD5D2" opacity="0.13" filter="url(#soft21147)"/>
    <circle cx="815" cy="320" r="92" fill="#DCD5D2" opacity="0.55"/>
  </g>
  <rect width="1600" height="1067" filter="url(#grain1147)" opacity="0.5" style="mix-blend-mode:overlay"/>
  <rect width="1600" height="1067" fill="url(#vig1147)"/>
</svg>