<svg xmlns="http://www.w3.org/2000/svg" viewBox="0 0 1000 1500" width="1000" height="1500" role="img">
  <defs>
  <linearGradient id="bg1266" x1="0.146" y1="0.146" x2="0.854" y2="0.854">
    <stop offset="0" stop-color="#0E1424"/>
    <stop offset="1" stop-color="#20304F"/>
  </linearGradient>
  <radialGradient id="vig1266" cx="0.5" cy="0.45" r="0.78">
    <stop offset="0.45" stop-color="#000000" stop-opacity="0"/>
    <stop offset="1" stop-color="#000000" stop-opacity="0.42"/>
  </radialGradient>
  <filter id="grain1266" x="0" y="0" width="100%" height="100%">
    <feTurbulence type="fractalNoise" baseFrequency="0.9" numOctaves="2" seed="432" result="n"/>
    <feColorMatrix type="saturate" values="0" in="n" result="g"/>
    <feComponentTransfer in="g"><feFuncA type="linear" slope="0.32"/></feComponentTransfer>
  </filter>
  <filter id="soft1266" x="-30%" y="-30%" width="160%" height="160%">
    <feGaussianBlur stdDeviation="76"/>
  </filter>
  <filter id="soft21266" x="-30%" y="-30%" width="160%" height="160%">
    <feGaussianBlur stdDeviation="25"/>
  </filter>
  </defs>
  <rect width="1000" height="1500" fill="url(#bg1266)"/>
  <g>
    <path d="M 291 924 A 120 120 0 0 1 531 924" fill="none" stroke="#3B5B87" stroke-width="11.0" opacity="0.40"/>
    <path d="M 197 924 A 215 215 0 0 1 626 924" fill="none" stroke="#CFDCE8" stroke-width="11.4" opacity="0.55"/>
    <path d="M 96 924 A 315 315 0 0 1 727 924" fill="none" stroke="#3B5B87" stroke-width="10.8" opacity="0.46"/>
    <path d="M 76 924 A 336 336 0 0 1 747 924" fill="none" stroke="#CFDCE8" stroke-width="13.5" opacity="0.59"/>
    <path d="M -88 924 A 500 500 0 0 1 911 924" fill="none" stroke="#7897BE" stroke-width="9.6" opacity="0.67"/>
    <path d="M -134 924 A 546 546 0 0 1 957 924" fill="none" stroke="#CFDCE8" stroke-width="9.8" opacity="0.54"/>
    <rect x="622" y="1048" width="114" height="452" fill="#20304F" opacity="0.47"/>
    <rect x="285" y="980" width="110" height="520" fill="#7897BE" opacity="0.48"/>
    <rect x="775" y="723" width="166" height="777" fill="#20304F" opacity="0.40"/>
    <rect x="341" y="560" width="121" height="940" fill="#20304F" opacity="0.44"/>
  </g>
  <rect width="1000" height="1500" filter="url(#grain1266)" opacity="0.5" style="mix-blend-mode:overlay"/>
  <rect width="1000" height="1500" fill="url(#vig1266)"/>
</svg>